<svg width="24" height="24" viewBox="0 0 24 24" xmlns="http://www.w3.org/2000/svg"><path d="M19.285 12.645a3.8 3.8 0 0 0-5.416-5.332c-.192.192-.436.427-.732.707l-.823.775-.823-.775c-.297-.28-.54-.515-.733-.707a3.8 3.8 0 0 0-5.374 0c-1.468 1.469-1.485 3.844-.054 5.32l6.984 6.984 6.97-6.972zm-14.75-6.18a5 5 0 0 1 7.072 0c.182.182.418.41.707.682.288-.272.524-.5.707-.683a5 5 0 0 1 7.125 7.017l-7.125 7.126a1 1 0 0 1-1.414 0L4.48 13.48a5 5 0 0 1 .055-7.017z" fill="rgba(90,90,90,.8)" fill-rule="nonzero"/></svg>